<?xml version="1.0" standalone="no"?>
<!DOCTYPE svg PUBLIC "-//W3C//DTD SVG 20010904//EN"
 "http://www.w3.org/TR/2001/REC-SVG-20010904/DTD/svg10.dtd">
<svg version="1.0" xmlns="http://www.w3.org/2000/svg"
 width="225.000000pt" height="225.000000pt" viewBox="0 0 225.000000 225.000000"
 preserveAspectRatio="xMidYMid meet">
<metadata>
Created by potrace 1.11, written by Peter Selinger 2001-2013
</metadata>
<g transform="translate(0.000000,225.000000) scale(0.100000,-0.100000)"
fill="#000000" stroke="none">
<path d="M205 2217 c-161 -77 -247 -289 -157 -385 24 -26 38 -31 98 -37 38 -3
82 -11 97 -17 15 -6 63 -52 106 -102 163 -188 386 -389 488 -439 l42 -20 54
44 c30 25 86 74 125 110 l72 65 -97 119 c-277 344 -501 581 -607 644 -78 47
-149 52 -221 18z m221 -199 c68 -61 -3 -172 -87 -138 -18 8 -37 27 -46 46 -21
43 -3 91 41 110 36 15 62 10 92 -18z m353 -364 c61 -51 28 -144 -50 -144 -73
0 -113 71 -73 128 32 46 80 53 123 16z"/>
</g>
</svg>
